<?xml version="1.0" standalone="no"?>
<!DOCTYPE svg PUBLIC "-//W3C//DTD SVG 20010904//EN"
 "http://www.w3.org/TR/2001/REC-SVG-20010904/DTD/svg10.dtd">
<svg version="1.0" xmlns="http://www.w3.org/2000/svg"
 width="370.000000pt" height="600.000000pt" viewBox="0 0 370.000000 600.000000"
 preserveAspectRatio="xMidYMid meet">
<metadata>
Created by potrace 1.15, written by Peter Selinger 2001-2017
</metadata>
<g transform="translate(0.000000,600.000000) scale(0.100000,-0.100000)"
fill="#000000" stroke="none">
<path d="M554 5981 c-47 -22 -80 -59 -94 -110 -8 -25 -10 -624 -8 -1896 l3
-1860 23 -37 c13 -20 40 -47 60 -60 l37 -23 1253 -3 c828 -1 1267 1 1292 8 50
13 86 43 110 91 20 38 20 67 20 1903 0 1293 -3 1873 -11 1893 -14 38 -57 83
-96 99 -23 10 -76 14 -177 14 l-145 0 -172 -302 c-159 -281 -595 -1036 -815
-1415 -52 -89 -94 -165 -94 -169 0 -4 15 6 33 23 58 55 431 358 482 393 28 18
73 52 100 75 85 70 145 107 185 112 34 5 43 1 79 -33 l41 -39 -31 -85 c-22
-58 -73 -149 -160 -285 -105 -164 -139 -209 -188 -250 -61 -51 -144 -155 -220
-276 -27 -44 -52 -71 -72 -79 -16 -7 -51 -40 -77 -74 -27 -33 -205 -319 -397
-634 -191 -315 -349 -571 -351 -569 -2 1 7 37 20 78 41 134 258 510 611 1059
183 283 382 601 445 705 62 105 120 201 129 215 19 30 33 42 -418 -370 -332
-304 -346 -316 -407 -334 l-63 -19 -51 38 c-34 25 -50 43 -47 54 2 9 177 318
389 686 366 637 469 816 736 1280 63 110 116 203 119 208 2 4 -454 7 -1014 7
-969 0 -1020 -1 -1059 -19z"/>
<path d="M40 1470 l0 -340 270 0 271 0 -3 88 -3 87 -158 0 -157 0 0 253 0 252
-110 0 -110 0 0 -340z"/>
<path d="M2214 1796 c-3 -8 -4 -57 -2 -110 2 -53 1 -95 -2 -93 -76 47 -181 49
-248 5 -54 -36 -84 -101 -90 -193 -8 -125 44 -237 124 -271 65 -27 168 -12
203 29 19 24 31 21 31 -8 0 -25 1 -25 90 -25 l90 0 0 340 0 340 -95 0 c-73 0
-97 -3 -101 -14z m-31 -331 c40 -30 40 -153 1 -182 -19 -14 -63 -17 -80 -5
-39 26 -48 148 -14 182 23 23 67 26 93 5z"/>
<path d="M792 1617 c-46 -14 -121 -84 -143 -132 -23 -51 -25 -161 -3 -213 38
-92 121 -143 240 -150 143 -8 238 43 284 150 18 43 22 65 18 123 -3 38 -12 84
-21 102 -26 49 -84 100 -135 117 -52 18 -188 20 -240 3z m177 -155 c21 -23 23
-33 19 -95 -5 -83 -27 -110 -86 -105 -93 8 -109 182 -22 225 32 16 59 8 89
-25z"/>
<path d="M1507 1600 c-26 -16 -49 -30 -51 -30 -1 0 -2 10 -2 23 1 21 -3 22
-91 25 l-93 3 0 -246 0 -245 100 0 100 0 0 150 c0 147 1 152 25 175 29 30 45
31 76 6 23 -19 24 -24 26 -173 l1 -153 96 -3 96 -3 0 193 c0 217 -7 244 -69
285 -27 18 -48 23 -101 23 -56 0 -73 -4 -113 -30z"/>
<path d="M2658 1615 c-59 -22 -102 -60 -134 -117 -23 -44 -28 -65 -28 -123 0
-154 108 -253 275 -255 168 -1 275 86 286 234 10 113 -39 201 -137 252 -47 24
-209 30 -262 9z m187 -166 c30 -57 11 -167 -30 -183 -35 -13 -72 -6 -95 19
-50 53 -32 183 28 203 37 12 80 -4 97 -39z"/>
<path d="M3395 1613 c-16 -8 -40 -25 -52 -36 l-23 -20 0 31 0 32 -90 0 -90 0
0 -245 0 -245 100 0 99 0 3 156 3 157 28 21 c26 19 30 19 55 5 l27 -15 3 -162
2 -162 100 0 100 0 0 188 c0 213 -11 254 -72 292 -41 25 -148 27 -193 3z"/>
<path d="M372 573 l3 -338 108 -3 107 -3 0 136 0 135 110 0 110 0 0 -135 0
-136 108 3 107 3 3 338 2 337 -110 0 -110 0 0 -115 0 -115 -110 0 -110 0 0
115 0 115 -110 0 -110 0 2 -337z"/>
<path d="M2020 804 c0 -97 -1 -106 -17 -99 -89 38 -123 42 -188 24 -143 -40
-193 -280 -90 -429 61 -88 191 -104 275 -33 l30 25 0 -31 0 -32 93 3 92 3 0
335 0 335 -97 3 -98 3 0 -107z m-43 -229 c50 -35 54 -147 6 -185 -34 -27 -59
-25 -90 6 -23 23 -25 31 -21 91 3 54 8 69 27 84 28 23 50 24 78 4z"/>
<path d="M2553 720 c-18 -11 -33 -24 -33 -30 0 -5 -4 -10 -8 -10 -5 0 -8 10
-8 23 1 21 -3 22 -91 25 l-93 3 0 -251 0 -251 98 3 97 3 5 142 c4 125 8 145
26 170 19 24 28 28 66 27 l44 -2 28 69 c16 38 27 71 25 73 -11 9 -75 26 -98
26 -14 0 -41 -9 -58 -20z"/>
<path d="M2925 731 c-85 -22 -151 -77 -183 -150 -20 -46 -20 -156 0 -202 43
-100 134 -153 263 -153 104 -1 159 20 218 83 116 123 79 330 -70 398 -57 26
-173 39 -228 24z m136 -160 c26 -26 29 -36 29 -91 0 -55 -3 -65 -29 -91 -36
-36 -73 -37 -106 -5 -65 65 -30 216 50 216 16 0 38 -12 56 -29z"/>
<path d="M1120 638 c21 -51 68 -163 104 -248 l66 -155 -19 -25 c-17 -23 -25
-25 -89 -24 l-71 0 5 -45 c12 -101 11 -101 134 -101 94 0 149 23 184 77 14 21
71 162 127 313 56 151 104 281 107 288 3 10 -17 12 -94 10 l-99 -3 -41 -142
c-22 -79 -43 -145 -45 -148 -3 -2 -25 62 -50 143 l-45 147 -107 3 -106 3 39
-93z"/>
</g>
</svg>
